<svg width="33" height="32" viewBox="0 0 33 32" fill="none" xmlns="http://www.w3.org/2000/svg">
<path d="M16.5 5.66669C10.7931 5.66669 6.16669 10.2931 6.16669 16C6.16669 21.707 10.7931 26.3334 16.5 26.3334C22.207 26.3334 26.8334 21.707 26.8334 16C26.8334 10.2931 22.207 5.66669 16.5 5.66669ZM16.5 25C11.5557 25 7.50002 20.9977 7.50002 16C7.50002 11.0557 11.5023 7.00002 16.5 7.00002C21.4444 7.00002 25.5 11.0023 25.5 16C25.5 20.9443 21.4977 25 16.5 25ZM22.4013 13.5433L14.8813 21.003C14.6852 21.1974 14.3686 21.1962 14.1742 21.0001L10.5959 17.393C10.4015 17.1969 10.4027 16.8804 10.5988 16.6859L10.9538 16.3338C11.1498 16.1393 11.4664 16.1406 11.6609 16.3366L14.5349 19.2338L21.3449 12.4784C21.5409 12.2839 21.8575 12.2852 22.052 12.4812L22.4041 12.8362C22.5986 13.0323 22.5973 13.3489 22.4013 13.5433Z" fill="#464646"/>
</svg>
